# xmcd
#
# Track frame offsets:
#	150
#	22836
#	43537
#	68859
#	89553
#	107119
#	129443
#	155110
#	173194
#	203843
#
# Disc length: 2967 seconds
# Revision: 0
# Processed by: cddbd v1.5.2PL0 Copyright (c) Steve Scherf et al.
# Submitted via: dBpowerAMP V12.0
#
DISCID=840b950a
DTITLE=Bobby King and Terry Evans - Rhythm, Blues, Soul and Grooves
DYEAR=1990
DGENRE=Rhythm and Blues
TTITLE0=(01) One Way Ticket to Memphis
TTITLE1=(02) Where We Gonna Go From Here
TTITLE2=(03) You're the One
TTITLE3=(04) We'll Always Be Together
TTITLE4=(05) I Fancy You
TTITLE5=(06) I Wanna Be With You
TTITLE6=(07) I'll Be Strong
TTITLE7=(08) I'm in Love
TTITLE8=(09) You and Me
TTITLE9=(10) Boogie Jam
EXTD=
EXTT0=
EXTT1=
EXTT2=
EXTT3=
EXTT4=
EXTT5=
EXTT6=
EXTT7=
EXTT8=
EXTT9=
PLAYORDER=
